{"title":"National Lampoons Dirty Movie (2011) Xvid {1337x}-X","uid":6179859,"size":732874752,"categoryP":"video","categoryS":"movies","magnet":"?xt=urn:btih:d408df138fff758dc5502ab5e1ab0ef5a7994856&amp;dn=National+Lampoons+Dirty+Movie+%282011%29+Xvid+%7B1337x%7D-X&amp;tr=udp%3A%2F%2Ftracker.openbittorrent.com%3A80&amp;tr=udp%3A%2F%2Fopen.demonii.com%3A1337&amp;tr=udp%3A%2F%2Ftracker.coppersurfer.tk%3A6969&amp;tr=udp%3A%2F%2Fexodus.desync.com%3A6969","seeders":0,"leechers":1,"uploader":"hiest","files":-1,"time":1297913397,"description":"Video\n\nCodec ID : XVID\nCodec ID/Hint : XviD\nDuration : 1h 30mn\nBit rate : 962 Kbps\nWidth : 656 pixels\nHeight : 368 pixels\nDisplay aspect ratio : 16:9\nFrame rate : 23.976 fps\nColor space : YUV\nChroma subsampling : 4:2:0\nBit depth : 8 bits\nScan type : Progressive\nBits/(Pixel*Frame) : 0.166\nStream size : 626 MiB (90%)\nWriting library : XviD 57\n\n\nAudio\nID : 1\nFormat : MPEG Audio\nFormat version : Version 1\nFormat profile : Layer 3\nMode : Joint stereo\nMode extension : MS Stereo\nCodec ID : 55\nCodec ID/Hint : MP3\nDuration : 1h 30mn\nBit rate mode : Variable\nBit rate : 99.9 Kbps\nNominal bit rate : 112 Kbps\nChannel(s) : 2 channels\nSampling rate : 48.0 KHz\nStream size : 65.0 MiB (9%)\nAlignment : Aligned on interleaves\nInterleave, duration : 24 ms (0.58 video frame)\nInterleave, preload duration : 184 ms\nWriting library : LAME3.97\n\n\n\nAn outrageous cut-rate producer, Charlie LaRue\n(Christopher Meloni) is about to fulfill his lifelong\ndream to make a movie about the most offensive, dirtiest\njokes ever told. As Charlie and his filmmaking team\nhilariously struggle to write a script and assemble their\naward-winning cast, the movie-within-a-movie emerges with\none dirty joke after another. Only one can take the crown\nfor writing the dirtiest joke ever told and Charlie will\ndo whatever he can to be that king","torrent":{"xt":"urn:btih:d408df138fff758dc5502ab5e1ab0ef5a7994856","amp;dn":"National+Lampoons+Dirty+Movie+%282011%29+Xvid+%7B1337x%7D-X","amp;tr":["udp%3A%2F%2Ftracker.openbittorrent.com%3A80","udp%3A%2F%2Fopen.demonii.com%3A1337","udp%3A%2F%2Ftracker.coppersurfer.tk%3A6969","udp%3A%2F%2Fexodus.desync.com%3A6969"],"infoHash":"d408df138fff758dc5502ab5e1ab0ef5a7994856","infoHashBuffer":{"type":"Buffer","data":[212,8,223,19,143,255,117,141,197,80,42,181,225,171,14,245,167,153,72,86]},"announce":[],"urlList":[]}}